HIERARCHY
ROOT pelvis
{
  OFFSET 0 100 0
  CHANNELS 6 Xposition Yposition Zposition Zrotation Xrotation Yrotation
  JOINT pelvis_right_femur
  {
    OFFSET -10.78128 -3.44521 -0.5502486
    CHANNELS 3 Zrotation Xrotation Yrotation
    JOINT right_femur_tibia
    {
      OFFSET -0.8047443 -44.0398 -0.1307829
      CHANNELS 3 Zrotation Xrotation Yrotation
      JOINT right_tibia_foot
      {
        OFFSET 3.006224 -47.83518 -5
        CHANNELS 3 Zrotation Xrotation Yrotation
        End Site
        {
          OFFSET 0 -5 15
        }
      }
    }
  }
  JOINT pelvis_left_femur
  {
    OFFSET 10.78128 -3.44521 -0.5502486
    CHANNELS 3 Zrotation Xrotation Yrotation
    JOINT left_femur_tibia
    {
      OFFSET 0.8047443 -44.0398 -0.1307829
      CHANNELS 3 Zrotation Xrotation Yrotation
      JOINT left_tibia_foot
      {
        OFFSET -4.370144 -48.10324 -4.275266
        CHANNELS 3 Zrotation Xrotation Yrotation
        End Site
        {
          OFFSET 0 -5 15
        }
      }
    }
  }
  JOINT pelvis_spine1
  {
    OFFSET 0 6.468898 -3.129235
    CHANNELS 3 Zrotation Xrotation Yrotation
    JOINT spine1
    {
      OFFSET 0 23.15396 4.99043
      CHANNELS 3 Zrotation Xrotation Yrotation
      JOINT spine2
      {
        OFFSET 0 20.79997 -5.064912
        CHANNELS 3 Zrotation Xrotation Yrotation
        JOINT neck
        {
          OFFSET 0 14.38658 9.616178
          CHANNELS 3 Zrotation Xrotation Yrotation
          End Site
          {
            OFFSET 0 20 0
          }
        }
      }
      JOINT right_manubrium
      {
        OFFSET -5.722621 16.35077 3.967754
        CHANNELS 3 Zrotation Xrotation Yrotation
        JOINT right_clavicle
        {
          OFFSET -13.16364 1.694482 -4.693211
          CHANNELS 3 Zrotation Xrotation Yrotation
          JOINT right_humerus
          {
            OFFSET -28.5034 -0.3100689 -2.792744
            CHANNELS 3 Zrotation Xrotation Yrotation
            JOINT right_radius
            {
              OFFSET -25.15693 0.02248979 -1.271978
              CHANNELS 3 Zrotation Xrotation Yrotation
              End Site
              {
                OFFSET -15 0 0
              }
            }
          }
        }
      }
      JOINT left_manubrium
      {
        OFFSET 5.722621 16.35077 3.967754
        CHANNELS 3 Zrotation Xrotation Yrotation
        JOINT left_clavicle
        {
          OFFSET 13.16364 1.694482 -4.693211
          CHANNELS 3 Zrotation Xrotation Yrotation
          JOINT left_humerus
          {
            OFFSET 29.39168 -1.063119 -2.237045
            CHANNELS 3 Zrotation Xrotation Yrotation
            JOINT left_radius
            {
              OFFSET 24.59957 -0.9528479 0.9047498
              CHANNELS 3 Zrotation Xrotation Yrotation
              End Site
              {
                OFFSET 15 -0 -0
              }
            }
          }
        }
      }
    }
  }
}
MOTION
Frames: 20
Frame Time: 0.0416666666667
0 103.5113 0 -0.09893154 1.027889 0.2529202 3.8564 -15.2683 7.277088 -1.897246e-09 35.03111 8.056857e-10 -8.62465 -15.83501 -1.917358 -6.437999 5.716393 -22.94522 -4.730042e-09 4.273508 2.18089e-09 5.068906 -18.13222 24.44619 -3.33024 -2.100867 3.750415 2.521571 7.174042 -6.665946 1.330524 23.16158 7.060513 3.226887 -25.05419 9.653027 6.151876 -18.8116 11.08686 83.51257 37.54068 -15.23763 -5.04317e-10 2.940487e-10 16.00992 -6.068899 6.499483 5.609887 5.672106 -17.80025 0.008729067 -97.36448 30.81209 25.29072 -4.639258e-10 -2.94835e-10 -11.65842 3.643972 18.47011 9.606877
0.3752064 103.6644 1.867612 -0.04850118 1.078874 0.6131964 3.717259 -16.78391 7.30428 -2.055974e-09 37.39768 8.289113e-10 -8.31207 -14.46033 -2.038366 -6.630435 7.357639 -23.11307 -4.861243e-09 4.171032 2.041406e-09 5.168025 -18.60965 24.27368 -3.461411 -2.170217 3.57155 2.545583 7.298494 -6.890855 1.271698 23.12943 7.256642 3.321029 -25.18968 9.766443 6.396942 -18.56888 11.13132 84.23675 37.78471 -16.12796 -5.292114e-10 2.7471e-10 15.55887 -6.257271 6.678182 5.570334 5.677929 -18.00939 -0.09326028 -97.06775 30.88778 24.76903 -4.061576e-10 -2.688312e-10 -12.18487 3.646826 18.29647 9.710199
0.7519296 103.8655 3.820181 -0.04608919 1.210723 1.047553 3.716212 -18.55407 7.191694 -2.128727e-09 38.03554 8.221521e-10 -8.047286 -13.3077 -2.143792 -6.675271 8.907298 -22.99545 -4.742121e-09 4.119597 2.155985e-09 5.217861 -19.08026 23.89151 -3.508107 -2.263558 3.418612 2.614942 7.469449 -7.186557 1.188853 22.99895 7.41944 3.400498 -25.30572 9.798991 6.525989 -18.39081 11.19259 84.98789 37.85963 -17.16682 -5.256081e-10 2.466817e-10 15.10333 -6.540543 6.979661 5.539522 5.766787 -18.42534 -0.2428106 -96.50286 30.73959 24.03953 -3.619151e-10 -2.493666e-10 -13.14633 3.795798 18.08733 9.614876
1.112823 104.0299 5.898882 -0.09350338 1.429542 1.519636 3.85698 -20.59513 6.960168 -2.108308e-09 36.94839 7.797731e-10 -7.796807 -12.36865 -2.238405 -6.584056 10.35836 -22.57682 -4.36295e-09 4.223937 2.522528e-09 5.187722 -19.54304 23.28104 -3.468707 -2.383046 3.301931 2.734382 7.697575 -7.566448 1.078314 22.77234 7.558285 3.469538 -25.4156 9.754675 6.556572 -18.28042 11.2849 85.82659 37.78829 -18.40088 -4.927597e-10 2.107201e-10 14.65348 -6.947907 7.439415 5.525142 5.938037 -19.06568 -0.4356964 -95.72706 30.35505 23.12555 -3.292283e-10 -2.361101e-10 -14.58461 4.067655 17.818 9.356917
1.439376 104.072 8.120409 -0.1925102 1.725847 1.987951 4.12941 -22.76245 6.633686 -2.006208e-09 34.13235 7.092184e-10 -7.606103 -11.76369 -2.310326 -6.365067 11.62387 -21.91084 -3.75615e-09 4.431397 3.132784e-09 5.087259 -19.95848 22.48881 -3.344034 -2.51485 3.219136 2.897778 7.940327 -7.990786 0.9534507 22.45566 7.649099 3.514757 -25.49435 9.630889 6.476347 -18.22197 11.38162 86.56886 37.57371 -19.67287 -4.34132e-10 1.679486e-10 14.21557 -7.382965 7.980771 5.502774 6.175682 -19.85396 -0.6476047 -94.72112 29.78497 22.06239 -3.12678e-10 -2.303039e-10 -16.36128 4.447523 17.52233 8.934736
1.721363 103.9437 10.49973 -0.3243627 2.056269 2.424251 4.477664 -24.90255 6.265119 -1.856283e-09 30.27599 6.318606e-10 -7.436738 -11.3647 -2.36446 -6.074937 12.68726 -21.06595 -3.01611e-09 4.829233 3.861125e-09 4.910359 -20.29307 21.56742 -3.160811 -2.650623 3.170985 3.083151 8.195179 -8.431821 0.8206327 22.07684 7.705342 3.542725 -25.54069 9.450599 6.330056 -18.19571 11.48254 87.19677 37.2653 -20.91944 -3.597736e-10 1.231577e-10 13.80036 -7.85253 8.582896 5.485368 6.439593 -20.71488 -0.86582 -93.58186 29.07842 20.94456 -3.052314e-10 -2.281884e-10 -18.30761 4.869584 17.18594 8.436301
1.953357 103.6155 13.07171 -0.4649683 2.33706 2.806904 4.853027 -26.85322 5.886557 -1.680941e-09 25.87369 5.620806e-10 -7.220987 -11.10463 -2.443887 -5.745521 13.51549 -20.05578 -2.194606e-09 5.579756 4.622123e-09 4.584977 -20.53414 20.56141 -2.937745 -2.760313 3.16016 3.261719 8.451837 -8.857284 0.6996465 21.69679 7.732057 3.549768 -25.51628 9.242832 6.131758 -18.17059 11.58506 87.80348 36.84813 -22.10838 -2.753263e-10 7.509207e-11 13.42096 -8.432235 9.255833 5.50412 6.714042 -21.58968 -1.0804 -92.44299 28.27179 19.78907 -2.984676e-10 -2.25841e-10 -20.30373 5.259841 16.78381 7.948243
2.14306 103.1395 15.86297 -0.5785849 2.478581 3.135686 5.17703 -28.35312 5.588861 -1.52264e-09 22.24083 4.98309e-10 -6.934305 -10.75971 -2.57281 -5.471471 14.12931 -19.04262 -1.482177e-09 6.956955 5.187708e-09 4.109409 -20.61302 19.58993 -2.722512 -2.822085 3.174514 3.3935 8.697888 -9.209353 0.6094256 21.38995 7.7492 3.548516 -25.4227 9.057127 5.962791 -18.08796 11.6831 88.39589 36.41235 -23.14957 -2.026634e-10 3.066218e-11 13.05289 -9.081756 9.923314 5.554394 6.924026 -22.33134 -1.27136 -91.47578 27.51138 18.73105 -2.778417e-10 -2.153979e-10 -22.00939 5.518341 16.3325 7.608421
2.305068 102.6249 18.8859 -0.6538755 2.437448 3.416946 5.430161 -29.1585 5.408645 -1.385337e-09 20.01036 4.189533e-10 -6.625589 -10.21079 -2.733951 -5.288991 14.44548 -18.10109 -9.898486e-10 9.237116 5.407624e-09 3.509581 -20.40496 18.70137 -2.524512 -2.83225 3.214236 3.456366 8.935908 -9.442366 0.5558699 21.16786 7.752154 3.544757 -25.25872 8.89532 5.856169 -17.92412 11.7694 88.83898 36.00093 -23.92338 -1.544674e-10 -2.672948e-12 12.67098 -9.729794 10.51204 5.615452 7.007676 -22.84478 -1.436894 -90.68086 26.86139 17.87333 -2.377277e-10 -1.91811e-10 -23.17687 5.622601 15.85715 7.448443
2.465441 102.2521 22.15576 -0.6807321 2.172517 3.665278 5.599057 -28.99084 5.387559 -1.258203e-09 19.91438 2.969318e-10 -6.312993 -9.238542 -2.902026 -5.237998 14.32255 -17.2568 -8.065119e-10 12.89213 5.089034e-09 2.798078 -19.73948 17.90901 -2.346525 -2.801156 3.300914 3.429279 9.211751 -9.528572 0.5318188 21.02735 7.751551 3.556432 -25.04739 8.751712 5.867268 -17.6815 11.86427 89.06982 35.66959 -24.37277 -1.423943e-10 -1.275643e-11 12.27122 -10.37674 11.00743 5.693407 6.889328 -23.06955 -1.588471 -90.10059 26.33957 17.38145 -1.691049e-10 -1.479438e-10 -23.59266 5.54187 15.3438 7.528358
2.637203 102.1596 25.70193 -0.6888865 1.704017 3.860885 5.796705 -27.72922 5.512199 -1.087852e-09 20.89281 1.225676e-10 -6.060986 -8.20459 -3.066386 -5.209652 13.46359 -16.38744 -7.635951e-10 18.25117 4.359339e-09 1.911101 -18.52831 17.19095 -2.128755 -2.721701 3.488078 3.335153 9.534737 -9.47599 0.5388206 20.9834 7.715181 3.571708 -24.79944 8.597185 5.939375 -17.43056 11.99447 89.19555 35.36815 -24.53465 -1.517832e-10 1.134725e-13 11.92917 -11.03839 11.45975 5.792166 6.607518 -23.08563 -1.714733 -89.87937 25.88841 17.3191 -8.525937e-11 -8.603214e-11 -23.38866 5.311744 14.81472 7.801014
2.797555 102.4546 29.49219 -0.7318186 1.118218 3.946148 6.162355 -25.56818 5.767046 -8.641169e-10 21.75369 -1.283685e-10 -6.108729 -7.522188 -3.190112 -5.097258 11.93667 -15.53997 -7.231371e-10 25.46011 3.433999e-09 0.9048011 -16.73148 16.54257 -1.81382 -2.589606 3.746531 3.222256 9.833737 -9.284038 0.5862317 21.00845 7.578401 3.567197 -24.51888 8.392127 6.003911 -17.12529 12.11591 88.99433 35.1027 -24.38592 -1.782179e-10 2.70056e-11 11.51108 -11.38111 11.72546 5.741154 6.19523 -22.91056 -1.789948 -89.79867 25.56291 17.55332 -4.423633e-12 -5.473574e-12 -22.64442 5.058832 14.40292 8.076668
2.9345 103.1537 33.53219 -0.7974506 0.4268367 3.85217 6.639159 -22.26001 6.093273 -5.544206e-10 21.9001 -3.96184e-10 -6.279476 -7.490581 -3.2665 -4.816458 9.313946 -14.56251 -4.949399e-10 33.92462 2.322229e-09 -0.2744995 -14.43787 16.03588 -1.407129 -2.39569 4.15664 3.078838 10.11676 -8.95546 0.6702317 21.12195 7.352758 3.531882 -24.1951 8.145263 6.022804 -16.92353 12.26825 88.63918 34.82097 -23.86981 -2.001585e-10 7.398167e-11 11.32848 -11.68342 11.96575 5.707081 5.716539 -22.59373 -1.78882 -90.16056 25.27446 18.23482 5.851932e-11 7.882779e-11 -21.48901 4.693296 14.02654 8.46588
3.043727 104.1861 37.77993 -0.8757627 -0.2591418 3.536282 7.097847 -18.07001 6.37468 -1.958722e-10 21.08753 -6.089155e-10 -6.520735 -8.20621 -3.241431 -4.348399 5.73815 -13.52912 -1.958043e-11 41.92441 1.097473e-09 -1.421044 -11.97388 15.77079 -0.9714829 -2.168847 4.679566 2.907485 10.32639 -8.503561 0.7756278 21.2542 7.051908 3.455801 -23.82585 7.865194 5.949347 -16.91156 12.41006 87.92003 34.50963 -22.84449 -2.071985e-10 1.395135e-10 11.52789 -11.95135 12.14174 5.749275 5.24333 -22.13418 -1.70671 -90.78796 24.9986 19.30212 8.378689e-11 1.465755e-10 -20.01782 4.257336 13.70936 8.897923
3.126797 105.3879 42.17027 -0.9432777 -0.8378552 3.003754 7.40347 -13.7227 6.495006 1.452991e-10 19.3404 -7.006327e-10 -6.708036 -9.478986 -3.122302 -3.742603 1.824888 -12.51284 6.229913e-10 47.57845 -2.779447e-11 -2.349508 -9.833213 15.73646 -0.593417 -1.942814 5.212194 2.717351 10.41252 -7.992863 0.8846161 21.32826 6.718341 3.336095 -23.38984 7.580868 5.742928 -17.08908 12.48486 86.78286 34.10153 -21.36704 -1.911957e-10 2.084058e-10 12.1062 -12.25002 12.24684 5.916967 4.875935 -21.59413 -1.576385 -91.32993 24.69357 20.43013 6.647945e-11 1.799072e-10 -18.5127 3.82668 13.44153 9.261621
3.218825 106.5966 46.69323 -0.9642125 -1.296023 2.300366 7.458563 -9.221538 6.467931 4.883702e-10 17.48199 -6.4403e-10 -6.60765 -10.90348 -2.882816 -3.05517 -2.463037 -11.43894 1.296467e-09 50.3684 -1.116517e-09 -3.026136 -8.125564 15.89088 -0.3266426 -1.766465 5.795054 2.488922 10.48036 -7.477325 0.9550136 21.30999 6.436904 3.210584 -22.95262 7.313449 5.47754 -17.57976 12.55997 85.48025 33.61482 -19.55654 -1.496191e-10 2.945938e-10 13.25113 -12.92705 12.46483 6.403721 4.606352 -21.04857 -1.438612 -91.96858 24.23078 21.79779 1.723457e-11 1.715252e-10 -17.06973 3.33581 13.08544 9.696548
3.345335 107.612 51.35711 -0.9274864 -1.658751 1.480671 7.268734 -5.006876 6.27934 8.038906e-10 15.34824 -4.357699e-10 -6.178362 -12.4278 -2.587428 -2.296531 -6.689441 -10.31061 1.788539e-09 49.94339 -1.818671e-09 -3.48204 -7.066813 16.18013 -0.188977 -1.619908 6.357029 2.227999 10.48682 -6.985989 1.004941 21.22825 6.209281 3.066104 -22.45826 7.090023 5.106783 -18.29442 12.59499 84.18061 32.95003 -17.56259 -8.058912e-11 3.786395e-10 14.83294 -14.00688 12.7808 7.190305 4.499973 -20.54555 -1.313311 -92.55385 23.62256 23.07334 -5.678074e-11 1.207681e-10 -15.88023 2.830047 12.65132 10.1233
3.544187 108.1999 56.11569 -0.8084974 -1.856202 0.6245702 6.760804 -1.29688 5.957107 1.057739e-09 13.18194 -5.099628e-11 -5.417105 -14.1129 -2.193074 -1.560252 -10.62569 -9.335272 1.773864e-09 45.13757 -1.822556e-09 -3.554475 -6.905655 16.69128 -0.2438536 -1.519129 6.843094 1.938904 10.35177 -6.510984 1.035022 21.06913 6.046675 2.895546 -21.92075 6.94408 4.631585 -19.23447 12.53522 82.72122 32.1601 -15.28062 1.071139e-11 4.609647e-10 16.8874 -15.34825 13.06566 8.250364 4.585059 -20.01253 -1.176678 -92.98612 22.99367 24.22213 -1.647278e-10 1.574266e-11 -14.88613 2.318683 12.21203 10.51865
3.846143 108.2505 60.94325 -0.6291687 -1.935449 -0.2006796 6.047529 1.829957 5.600972 1.262475e-09 11.56515 4.147e-10 -4.434115 -15.5901 -1.730852 -0.926763 -14.07195 -8.532836 1.500949e-09 37.70775 -1.534366e-09 -3.332438 -7.34664 17.29971 -0.4388032 -1.474825 7.248292 1.643581 10.16546 -6.09073 1.036449 20.8505 5.962605 2.7331 -21.41141 6.862253 4.149713 -20.27309 12.42656 81.29754 31.34236 -13.00128 1.055954e-10 5.433946e-10 19.12786 -16.83916 13.32169 9.458511 4.769781 -19.49924 -1.059382 -93.28331 22.36956 25.25678 -2.81416e-10 -1.173917e-10 -14.0701 1.828415 11.76308 10.89696
4.267799 107.7478 65.81888 -0.4119411 -1.952182 -0.9443757 5.223487 4.287779 5.278433 1.405098e-09 10.73451 8.857835e-10 -3.347005 -16.71384 -1.271733 -0.4595649 -16.82892 -7.948549 1.151274e-09 29.11291 -1.194479e-09 -2.933018 -8.173046 17.93385 -0.7262179 -1.466878 7.551116 1.359848 9.951481 -5.736714 1.023463 20.61618 5.944719 2.588947 -20.94652 6.841727 3.713685 -21.25765 12.28193 80.02136 30.56782 -10.91585 1.905399e-10 6.185194e-10 21.2799 -18.31699 13.51799 10.66593 4.997604 -19.01409 -0.9652612 -93.43105 21.82882 26.08795 -3.889253e-10 -2.564723e-10 -13.4071 1.372864 11.32731 11.2545
